<svg height="64" viewBox="0 0 64 64" width="64" xmlns="http://www.w3.org/2000/svg"><g fill="none" fill-rule="evenodd"><rect fill="#ececec" height="40" rx="3" width="60" x="2" y="10"/><path d="m7 15h13m-13 10h32m-32 5h22m15-10h13m-50 0h31m-12-5h31" stroke="#979797" stroke-linecap="square" stroke-width="2"/><path d="m43 40h10v19l-5-5-5 5z" fill="#22ba8e"/><circle cx="48" cy="36" fill="#fcc24c" r="8"/><path d="m53 36c0-2.7614237-2.2385763-5-5-5" stroke="#fff" stroke-linecap="round" stroke-width="2"/><g fill="#fcc24c"><path d="m11 45.5-2.939 1.545.561-3.272-2.377-2.318 3.286-.478 1.469-2.977 1.469 2.977 3.286.478-2.377 2.318.561 3.272z"/><path d="m21 45.5-2.939 1.545.561-3.272-2.377-2.318 3.286-.478 1.469-2.977 1.469 2.977 3.286.478-2.377 2.318.561 3.272z"/></g></g></svg>