<svg height="64" viewBox="0 0 64 64" width="64" xmlns="http://www.w3.org/2000/svg"><g fill="none" fill-rule="evenodd"><path d="m11 11 22-7 22 7v24.0044072c0 4.9681287-3.3293764 11.2656221-7.4328576 14.0634503l-14.5671424 9.9321425-14.5671424-9.9321425c-4.1050539-2.7989004-7.4328576-9.0977961-7.4328576-14.0634503z" fill="#ed9111"/><path d="m16 15.4727273 17-5.4727273 17 5.4727273v16.794525c0 4.9735865-3.3181276 11.2944507-7.4069942 14.1151127l-9.5930058 6.617635-9.5930058-6.617635c-4.0907699-2.821975-7.4069942-9.1408877-7.4069942-14.1151127z" fill="#e43535"/><path d="m18 18-4.243 1.243 1.243-4.243-1.243-4.243 4.243 1.243 4.243-1.243-1.243 4.243 1.243 4.243z" fill="#fff"/></g></svg>