<svg enable-background="new 0 0 128 128" viewBox="0 0 128 128" xmlns="http://www.w3.org/2000/svg" xmlns:xlink="http://www.w3.org/1999/xlink"><linearGradient id="a" gradientUnits="userSpaceOnUse" x1="64" x2="64" y1="11.356" y2="38.041"><stop offset=".0005936" stop-color="#a1887f"/><stop offset=".2381" stop-color="#927971"/><stop offset=".6929" stop-color="#6c524b"/><stop offset="1" stop-color="#4e342e"/></linearGradient><linearGradient id="b" gradientUnits="userSpaceOnUse" x1="64" x2="64" y1="34.378" y2="116.06"><stop offset="0" stop-color="#4e342e"/><stop offset=".424" stop-color="#503630"/><stop offset=".618" stop-color="#583d36"/><stop offset=".7651" stop-color="#644941"/><stop offset=".8878" stop-color="#765950"/><stop offset=".9933" stop-color="#8d6e63"/></linearGradient><linearGradient id="c" gradientUnits="userSpaceOnUse" x1="64" x2="64" y1="29.93" y2="80.463"><stop offset=".0067402" stop-color="#bcaaa4"/><stop offset="1" stop-color="#6d4c41"/></linearGradient><path d="m79.46 20.88v12.32h-30.92v-12.32zm4.18-9.42h-39.28c-2.89 0-5.23 2.34-5.23 5.23v20.69c0 2.89 2.34 5.23 5.23 5.23h39.28c2.89 0 5.23-2.34 5.23-5.23v-20.69c0-2.89-2.34-5.23-5.23-5.23z" fill="url(#a)"/><path d="m14.22 33.44h99.57c4.43 0 8.03 3.59 8.03 8.03v67.16c0 4.43-3.59 8.03-8.03 8.03h-99.57c-4.44 0-8.03-3.6-8.03-8.03v-67.16c0-4.43 3.59-8.03 8.03-8.03z" fill="url(#b)"/><path d="m116.88 29.78h-105.76c-3.77 0-6.82 3.05-6.82 6.82v27.27c0 1.08.54 2.07 1.44 2.68 13.26 8.99 35.93 13.89 58.26 14.34 22.33-.45 45-5.35 58.26-14.34.89-.6 1.44-1.6 1.44-2.68v-27.27c0-3.76-3.05-6.82-6.82-6.82z" fill="url(#c)"/><path d="m72.45 79.94v8.71c0 .49-.73.89-1.63.89h-13.64c-.9 0-1.63-.4-1.63-.89v-8.71c0-.49.73-.89 1.63-.89h13.64c.9 0 1.63.39 1.63.89z" fill="#ffca28"/><path d="m74.49 77.2v1.96c0 .9-.73 1.63-1.63 1.63h-17.72c-.9 0-1.63-.73-1.63-1.63v-1.96c0-.9.73-1.63 1.63-1.63h17.71c.91 0 1.64.73 1.64 1.63z" fill="#f9a825"/><path d="m83.64 14.46c1.23 0 2.23 1 2.23 2.23v13.09c0 1.66 1.34 3 3 3h28.01c2.11 0 3.82 1.71 3.82 3.82v27.27c0 .07-.04.14-.12.19-.04.03-.08.05-.13.08-.1.06-.2.12-.3.19-.84.56-1.35 1.5-1.35 2.5v41.8c0 2.77-2.26 5.03-5.03 5.03h-99.55c-2.77 0-5.03-2.26-5.03-5.03v-41.8c0-1.01-.51-1.95-1.35-2.5-.1-.06-.2-.13-.3-.19-.04-.03-.09-.05-.13-.08-.07-.05-.12-.12-.12-.19v-27.27c0-2.11 1.71-3.82 3.82-3.82h28.01c1.66 0 3-1.34 3-3v-13.09c0-1.23 1-2.23 2.23-2.23zm-35.1 18.32h30.92c1.66 0 3-1.34 3-3v-8.9c0-1.66-1.34-3-3-3h-30.92c-1.66 0-3 1.34-3 3v8.9c0 1.66 1.35 3 3 3m35.1-21.32h-39.28c-2.89 0-5.23 2.34-5.23 5.23v13.09h-28.01c-3.77 0-6.82 3.05-6.82 6.82v27.27c0 1.08.54 2.07 1.44 2.68.14.1.3.19.45.28v41.8c0 4.44 3.6 8.03 8.03 8.03h99.57c4.43 0 8.03-3.59 8.03-8.03v-41.8c.15-.1.31-.19.45-.28.89-.6 1.44-1.6 1.44-2.68v-27.27c0-3.77-3.05-6.82-6.82-6.82h-28.02v-13.09c0-2.89-2.34-5.23-5.23-5.23zm-35.1 18.32v-8.9h30.91v8.9z" fill="#424242" opacity=".2"/></svg>