<?xml version="1.0" encoding="UTF-8"?><svg width="212px" height="212px" viewBox="0 0 212 212" version="1.1" xmlns="http://www.w3.org/2000/svg" xmlns:xlink="http://www.w3.org/1999/xlink"><title>milk</title><desc>Created with Sketch.</desc><defs><path d="M5,0 L95,0 L99.8724112,30.2089495 C99.9573343,30.7354727 100,31.267946 100,31.8012739 L100,167 L100,167 L7,167 C3.13400675,167 4.73447626e-16,163.865993 0,160 L0,31.8012739 C-3.02159e-16,31.267946 0.0426656896,30.7354727 0.127588793,30.2089495 L5,0 L5,0 Z" id="path-1"/></defs><g id="milk" stroke="none" stroke-width="1" fill="none" fill-rule="evenodd"><rect id="Rectangle-215" fill="#0E8DC9" x="39" y="14" width="90" height="28" rx="5"/><g id="Rectangle-215" transform="translate(34.000000, 28.000000)"><mask id="mask-2" fill="white"><use xlink:href="#path-1"/></mask><use id="Mask" fill="#1899D6" xlink:href="#path-1"/><polygon fill="#E1FAFF" mask="url(#mask-2)" points="4.33680869e-19 31 100 31 100 135 4.33680869e-19 135"/></g><path d="M122.315577,78 L180.684423,78 C183.998132,78 186.684423,80.6862915 186.684423,84 C186.684423,84.1024799 186.681798,84.2049431 186.676549,84.3072885 L181.291934,189.307289 C181.12834,192.497376 178.494087,195 175.299808,195 L127.700192,195 C124.505913,195 121.87166,192.497376 121.708066,189.307289 L116.323451,84.3072885 C116.15374,80.9979287 118.698928,78.1775848 122.008288,78.007874 C122.110634,78.0026255 122.213097,78 122.315577,78 Z" id="Rectangle-2" fill="#47D7FF" opacity="0.692857143"/><path d="M129.740276,109 L173.259678,109 C175.468817,109 177.259678,110.790861 177.259678,113 C177.259678,113.06832 177.257927,113.136629 177.254428,113.204859 L173.710714,182.307289 C173.54712,185.497376 170.912868,188 167.718588,188 L135.281365,188 C132.087086,188 129.452834,185.497376 129.289239,182.307289 L125.745525,113.204859 C125.632385,110.998619 127.329177,109.11839 129.535417,109.005249 C129.603647,109.00175 129.671956,109 129.740276,109 Z" id="Rectangle-2" fill="#FFFFFF"/><g id="Group" transform="translate(57.000000, 82.000000)"><path d="M9.54893617,34.6666667 L45.2595745,34.6666667 C46.5850579,34.6666667 47.6595745,35.7411833 47.6595745,37.0666667 L47.6595745,52.08 C47.6595745,56.4540952 44.1136697,60 39.7395745,60 L15.0689362,60 C10.694841,60 7.14893617,56.4540952 7.14893617,52.08 L7.14893617,37.0666667 C7.14893617,35.7411833 8.22345277,34.6666667 9.54893617,34.6666667 Z" id="Rectangle-216" fill="#1899D6"/><path d="M18.3386047,9.33333333 L36.3590698,9.33333333 C40.733165,9.33333333 44.2790698,12.8792381 44.2790698,17.2533333 L44.2790698,30.68 C44.2790698,31.4090159 43.6880856,32 42.9590698,32 L11.7386047,32 C11.0095888,32 10.4186047,31.4090159 10.4186047,30.68 L10.4186047,17.2533333 C10.4186047,12.8792381 13.9645094,9.33333333 18.3386047,9.33333333 Z" id="Rectangle-216" fill="#1899D6"/><path d="M0,9.33333333 L56,9.33333333 C56,15.2243707 51.2243707,20 45.3333333,20 L10.6666667,20 C4.77562934,20 7.21444001e-16,15.2243707 0,9.33333333 L0,9.33333333 L0,9.33333333 Z" id="Rectangle" fill="#1899D6"/><rect id="Rectangle-3" fill="#E1FAFF" x="21" y="16" width="5" height="11" rx="2.5"/><rect id="Rectangle-3" fill="#E1FAFF" x="29" y="16" width="5" height="11" rx="2.5"/><path d="M24.4198765,10.6666667 C17.5813953,10.6666667 11.7202943,5.83203125 11.7202943,0.666015625 C9.71296633,5.16644965 9.71296633,8.89055328 11.7202943,11.8383265 C24.7456698,11.0572199 28.9788639,10.6666667 24.4198765,10.6666667 Z" id="Path-57" stroke="#1899D6" stroke-width="2.64" fill="#1899D6" stroke-linecap="round" stroke-linejoin="round"/><path d="M42.6524346,10.6666667 C35.8139535,10.6666667 29.9528525,5.83203125 29.9528525,0.666015625 C27.9455245,5.16644965 27.9455245,8.89055328 29.9528525,11.8383265 C42.978228,11.0572199 47.211422,10.6666667 42.6524346,10.6666667 Z" id="Path-57" stroke="#1899D6" stroke-width="2.64" fill="#1899D6" stroke-linecap="round" stroke-linejoin="round" transform="translate(36.436381, 6.252171) scale(-1, 1) translate(-36.436381, -6.252171)"/></g><path d="M78,30 L91,30 C95.418278,30 99,33.581722 99,38 L99,42 C99,46.418278 95.418278,50 91,50 L78,50 C73.581722,50 70,46.418278 70,42 L70,38 C70,33.581722 73.581722,30 78,30 Z" id="Rectangle-214" fill="#AFD9EF"/><path d="M77.5,29 L91.5,29 C95.6421356,29 99,32.3578644 99,36.5 C99,40.6421356 95.6421356,44 91.5,44 L77.5,44 C73.3578644,44 70,40.6421356 70,36.5 C70,32.3578644 73.3578644,29 77.5,29 Z" id="Rectangle-214" fill="#EDFDFF"/></g></svg>